<svg id="Capa_1" enable-background="new 0 0 512 512" height="512" viewBox="0 0 512 512" width="512" xmlns="http://www.w3.org/2000/svg"><g><path d="m118.425 24.303c-65.3 0-118.425 53.125-118.425 118.425v130.294h21.979v118.23c0 53.18 43.266 96.445 96.445 96.445 53.181 0 96.446-43.266 96.446-96.445v-118.23h21.979v-130.294c.002-65.3-53.124-118.425-118.424-118.425zm-88.425 218.718v-29.133h176.851v29.133zm154.871 148.231c0 36.638-29.808 66.445-66.446 66.445s-66.445-29.808-66.445-66.445v-118.23h132.892v118.23zm21.98-207.363h-176.851v-41.161c0-48.758 39.667-88.425 88.425-88.425s88.426 39.667 88.426 88.425z"/><path d="m512 142.728c0-65.3-53.125-118.425-118.425-118.425s-118.426 53.125-118.426 118.425v130.294h21.979v118.23c0 53.18 43.266 96.445 96.446 96.445s96.445-43.266 96.445-96.445v-118.23h21.981zm-118.425-88.425c48.758 0 88.425 39.667 88.425 88.425v41.161h-176.851v-41.161c0-48.758 39.668-88.425 88.426-88.425zm-88.426 188.718v-29.133h176.851v29.133zm154.872 148.231c0 36.638-29.808 66.445-66.445 66.445-36.639 0-66.446-29.808-66.446-66.445v-118.23h132.892v118.23z"/></g></svg>