<svg id="Capa_1" enable-background="new 0 0 512 512" height="512" viewBox="0 0 512 512" width="512" xmlns="http://www.w3.org/2000/svg"><g><path d="m256 0c-75.54 0-136.996 61.456-136.996 136.996v64.428h90.842v-64.428c0-25.449 20.705-46.153 46.154-46.153s46.153 20.705 46.153 46.154v57.851c0 25.448-20.704 46.152-46.153 46.152h-136.996v271h273.992v-375.004c0-75.54-61.456-136.996-136.996-136.996zm106.996 482h-213.992v-211h106.996c41.991 0 76.153-34.162 76.153-76.153v-57.851c0-41.991-34.162-76.154-76.153-76.154s-76.154 34.162-76.154 76.153v34.428h-30.842v-34.428c0-58.997 47.998-106.995 106.996-106.995s106.996 47.998 106.996 106.996z"/></g></svg>