<svg id="Capa_1" enable-background="new 0 0 512 512" height="512" viewBox="0 0 512 512" width="512" xmlns="http://www.w3.org/2000/svg"><g><path d="m290.291 214.789c10.991 8.083 17.553 21.055 17.553 34.698v14.534h30v-14.534c0-23.146-11.133-45.152-29.779-58.866-10.991-8.083-17.553-21.054-17.553-34.698v-14.534h-30v14.534c0 23.147 11.133 45.153 29.779 58.866z"/><path d="m354.147 167.184c10.991 8.083 17.553 21.054 17.553 34.698v14.535h30v-14.535c0-23.147-11.133-45.153-29.779-58.866-10.99-8.083-17.552-21.054-17.552-34.698v-14.534h-30v14.535c0 23.146 11.132 45.152 29.778 58.865z"/><path d="m437.02 74.98c-48.353-48.351-112.64-74.98-181.02-74.98s-132.667 26.629-181.02 74.98c-48.351 48.353-74.98 112.64-74.98 181.02s26.629 132.667 74.98 181.02c48.353 48.351 112.64 74.98 181.02 74.98s132.667-26.629 181.02-74.98c48.351-48.353 74.98-112.64 74.98-181.02s-26.629-132.667-74.98-181.02zm-21.214 21.214c42.686 42.686 66.194 99.439 66.194 159.806 0 55.339-19.768 107.632-55.942 148.844l-28.358-28.357h4v-96.982h-100.982l-193.563-193.562c41.212-36.175 93.506-55.943 148.845-55.943 60.367 0 117.12 23.508 159.806 66.194zm-85.088 213.311h40.982v36.982h-4zm-5.444 36.982h-184.974v-36.982h147.992zm-229.08 69.319c-42.686-42.686-66.194-99.439-66.194-159.806 0-55.339 19.768-107.632 55.942-148.844l172.35 172.349h-147.992v96.982h244.974l49.571 49.57c-41.212 36.175-93.506 55.943-148.845 55.943-60.367 0-117.12-23.508-159.806-66.194z"/></g></svg>