<svg id="Capa_1" enable-background="new 0 0 512 512" height="512" viewBox="0 0 512 512" width="512" xmlns="http://www.w3.org/2000/svg"><g><path d="m446.371 140.919v-22.23c0-28.8-23.43-52.229-52.23-52.229s-52.23 23.43-52.23 52.229v22.23h-171.822v-22.23c0-28.8-23.43-52.229-52.23-52.229s-52.23 23.43-52.23 52.229v22.23h-65.629v304.622h512v-304.622zm-74.46-22.231c0-12.258 9.972-22.229 22.23-22.229s22.23 9.972 22.23 22.229v22.23h-44.46zm-276.282 0c0-12.258 9.972-22.229 22.23-22.229s22.23 9.972 22.23 22.229v22.23h-44.46zm386.371 296.853h-452v-244.622h452z"/><path d="m148.08 226.479h-82.451v133.503h82.451zm-30 103.502h-22.451v-73.503h22.451z"/><path d="m197.034 308.23h52.451v-81.752h-82.451v133.504h30zm0-51.751h22.451v21.752h-22.451z"/><path d="m335.89 329.981h-37.451v-21.751h37.451v-30h-37.451v-21.751h37.451v-30h-67.451v133.502h67.451z"/><path d="m387.915 298.197 15.077 61.784h43.379l-.001-133.502h-30l.001 61.783-15.078-61.783h-43.378v133.503h30z"/></g></svg>