<svg id="Capa_1" enable-background="new 0 0 512 512" height="512" viewBox="0 0 512 512" width="512" xmlns="http://www.w3.org/2000/svg"><g><path d="m466.792 81.436c-19.671 0-36.439 12.633-42.64 30.209h-14.54v-4.892c0-31.16-25.351-56.511-56.511-56.511h-208.978c-31.16 0-56.511 25.351-56.511 56.511v4.218c-6.387-17.225-22.983-29.535-42.403-29.535-24.929 0-45.209 20.281-45.209 45.209s20.28 45.208 45.208 45.208c19.42 0 36.016-12.31 42.403-29.535v255.927h83.022v63.511h238.978v-320.111h14.54c6.201 17.576 22.969 30.208 42.64 30.208 24.928 0 45.208-20.28 45.208-45.208s-20.279-45.209-45.207-45.209zm-87.181 25.317v197.981h-178.977v-197.981c0-9.576-2.402-18.599-6.624-26.511h159.09c14.619.001 26.511 11.893 26.511 26.511zm-208.977 134.471h-53.022v-99.579h53.022zm-53.022 30h53.022v33.511h-53.022zm83.022 63.511h178.978v33.511h-178.978zm-56.511-254.492c14.618 0 26.511 11.893 26.511 26.511v4.892h-53.022v-4.892c0-14.619 11.893-26.511 26.511-26.511zm-98.915 61.611c-8.386 0-15.208-6.822-15.208-15.208s6.822-15.209 15.208-15.209 15.208 6.823 15.208 15.209-6.821 15.208-15.208 15.208zm72.404 226.392v-33.511h53.022v33.511zm83.022 63.511v-33.511h178.978v33.511zm266.158-289.903c-8.386 0-15.208-6.822-15.208-15.208s6.822-15.209 15.208-15.209 15.208 6.822 15.208 15.208-6.822 15.209-15.208 15.209z"/></g></svg>